<?xml version="1.0" encoding="utf-8"?>
<!-- Generator: Adobe Illustrator 16.0.0, SVG Export Plug-In . SVG Version: 6.00 Build 0)  -->
<!DOCTYPE svg PUBLIC "-//W3C//DTD SVG 1.1//EN" "http://www.w3.org/Graphics/SVG/1.1/DTD/svg11.dtd">
<svg version="1.1" id="Layer_1" xmlns="http://www.w3.org/2000/svg" xmlns:xlink="http://www.w3.org/1999/xlink" x="0px" y="0px"
	 width="44px" height="40px" viewBox="0 0 44 40" enable-background="new 0 0 44 40" xml:space="preserve">
<title>LinkedIn-black</title>
<desc>Created with Sketch.</desc>
<g id="Icons">
	<g id="Black" transform="translate(-702.000000, -265.000000)">
		<path id="LinkedIn" fill="#E71D36" d="M746,305h-9.725v-14.062c0-3.681-1.521-6.193-4.866-6.193c-2.559,0-3.981,1.696-4.644,3.329
			c-0.248,0.587-0.209,1.404-0.209,2.221V305h-9.635c0,0,0.124-24.909,0-27.173h9.635v4.265c0.568-1.865,3.646-4.526,8.56-4.526
			c6.095,0,10.884,3.909,10.884,12.325V305L746,305z M707.179,274.428h-0.062c-3.104,0-5.117-2.077-5.117-4.71
			c0-2.684,2.072-4.718,5.239-4.718c3.164,0,5.109,2.028,5.171,4.71C712.41,272.343,710.403,274.428,707.179,274.428
			L707.179,274.428L707.179,274.428z M703.11,277.827h8.576V305h-8.576V277.827L703.11,277.827z"/>
	</g>
</g>
</svg>
